# xmcd CD database file
#
# Track frame offsets:
#	150
#	16762
#	34768
#	48364
#	67689
#	88734
#	104254
#	122599
#	136973
#	155549
#	169950
#	189801
#	203711
#	216659
#	241374
#	251632
#	266046
#	287578
#	304764
#	324268
#	341502
#
# Disc length: 4775 seconds
#
# Revision: 0
# Processed by: cddbd v1.5.2PL0 Copyright (c) Steve Scherf et al.
# Submitted via: ACXtractor (MTCDDB.DLL V2003.07.15)
#
DISCID=2612a515
DTITLE=Reg Poole - Life
DYEAR=2010
DGENRE=Country
TTITLE0=Grandpa's Little Girl
TTITLE1=Old Soldiers Home
TTITLE2=Super 8
TTITLE3=Your Wedding Day
TTITLE4=Ancient Mountains
TTITLE5=If Everyone
TTITLE6=With Love from Normandy
TTITLE7=One One was a Race Horse
TTITLE8=Rodeo Heaven
TTITLE9=Hello Silver Moon and Twinkling Stars
TTITLE10=So Long Old Mate
TTITLE11=When You've Cried All You Can Cry
TTITLE12=Aussie Mates
TTITLE13=Devils Drive
TTITLE14=The Truckie and the Cocky
TTITLE15=A Little Piece of Me
TTITLE16=Stan
TTITLE17=Jesus Who
TTITLE18=We Miss You Russell Hawking
TTITLE19=Country Hands of Time
TTITLE20=I Love This Land Australia
EXTD=ID3G:   2 YEAR: 2010
EXTT0=
EXTT1=
EXTT2=
EXTT3=
EXTT4=
EXTT5=
EXTT6=
EXTT7=
EXTT8=
EXTT9=
EXTT10=
EXTT11=
EXTT12=
EXTT13=
EXTT14=
EXTT15=
EXTT16=
EXTT17=
EXTT18=
EXTT19=
EXTT20=
PLAYORDER=
